<svg xmlns="http://www.w3.org/2000/svg" viewBox="0 0 450 447.54"><title>Untitled-8</title><circle cx="33.39" cy="34.62" r="15.58" transform="translate(-14.7 32.52) rotate(-45)"/><path d="M450,415.38a10,10,0,0,0-16.28-7.8l-9.28-9.28a10,10,0,0,0,2.17-5.18H430a10,10,0,1,0,0-2.22h-3.43a10,10,0,1,0-3.75,9l9.3,9.3a10,10,0,0,0,6.73,16.17v3.49a10,10,0,0,0-5.37,2.33l-9.25-9.25a10,10,0,0,0-14.11-14.11l-9.25-9.25a10,10,0,0,0-14.11-14.11L222,219.66a15.54,15.54,0,0,0,4.14-9.49h4.31a15.62,15.62,0,1,0,0-2.23h-4.31A15.6,15.6,0,0,0,200,197.61L58.72,56.36A33.39,33.39,0,0,0,16.83,5.62v0a3.26,3.26,0,0,1-3.15.21,6.67,6.67,0,0,0-9.51,8.35h0s1.12,2.08.31,3.75A33.39,33.39,0,0,0,57,58.23c0.38-.38.75-0.77,1.11-1.17L199.3,198.26a15.6,15.6,0,0,0,10.17,26.37V229a15.62,15.62,0,1,0,2.23,0v-4.4a15.55,15.55,0,0,0,9.66-4.3L386.12,385.07a10,10,0,0,0,6.1,16.87v3.49a10,10,0,1,0,7.37,17.76l9.28,9.28a10,10,0,0,0-2.16,5.15h-3.44a10,10,0,1,0,0,2.22h3.42a10,10,0,1,0,3.74-8.94l-9.29-9.29a10,10,0,0,0-6.71-16.19v-3.49a10,10,0,0,0,5.81-2.73l9.21,9.21a10,10,0,0,0,14.15,14.15l9.21,9.21a10,10,0,1,0,8.27-3v-3.49A10,10,0,0,0,450,415.38Zm-10-31.17a7.79,7.79,0,1,1-7.7,8.9h1.53c1.11,0,1.88,1.47,1.89,1.47h0a5,5,0,1,0-.13-5,2.5,2.5,0,0,1-1.73,1.27h-1.57A7.79,7.79,0,0,1,440,384.21Zm-17.14,12.5-1.16-1.16a2.08,2.08,0,0,1-.37-1.49,2.13,2.13,0,0,1,1.53-.94h1.52A7.74,7.74,0,0,1,422.85,396.71Zm0-5.82c-1.09,0-1.84-1.47-1.85-1.47h0a5,5,0,1,0-3.18,7.46l0,0s1.59-.49,2.38.3h0l1.07,1.07a7.78,7.78,0,1,1,3.1-7.38h-1.55ZM246,195.66a13.39,13.39,0,1,1-13.34,14.5H236a3.33,3.33,0,0,1,3,2.2h0a7.81,7.81,0,1,0,0-6.63h0a3.35,3.35,0,0,1-2.89,2.2H232.7A13.4,13.4,0,0,1,246,195.66ZM33.39,65.79A31.17,31.17,0,0,1,6.44,19a2.35,2.35,0,0,1,2.26-.91h0a6.67,6.67,0,0,0,8.16-7.88A3.28,3.28,0,0,1,18,7.52,31.17,31.17,0,0,1,55.43,56.66,31,31,0,0,1,33.39,65.79ZM393.34,446.55a7.79,7.79,0,1,1,7.69-8.92H399.5c-1.12,0-1.89-1.47-1.9-1.47h0a5,5,0,1,0,.22,4.84,2.41,2.41,0,0,1,1.6-1.13H401A7.79,7.79,0,0,1,393.34,446.55Zm17.13-12.48,1.1,1.1h0a2,2,0,0,1,.44,1.56,2.34,2.34,0,0,1-1.28.9H409A7.74,7.74,0,0,1,410.47,434.06Zm0,5.78v0c1.12,0,1.89,1.47,1.9,1.47h0a5,5,0,1,0,2.93-7.4,2.58,2.58,0,0,1-2.1-.28L412,432.5a7.78,7.78,0,1,1-3.09,7.34h1.52Zm-17.14-55.64a7.77,7.77,0,0,1,6,12.75l-2-2a5,5,0,0,0-7-7l-2-2A7.75,7.75,0,0,1,393.34,384.21ZM220.44,218.07l-4-4a7.78,7.78,0,0,0,1.17-1.75h0a3.33,3.33,0,0,1,3-2.2h3.27A13.32,13.32,0,0,1,220.44,218.07Zm-9.86-22.42a13.4,13.4,0,0,1,13.34,12.27h-3.36a3.35,3.35,0,0,1-2.9-2.2h0a7.79,7.79,0,0,0-12.15-2.61l-3.94-3.94A13.32,13.32,0,0,1,210.58,195.66ZM197.19,209a13.33,13.33,0,0,1,3.69-9.21l3.94,3.94a7.8,7.8,0,0,0,2.73,12.47,3.3,3.3,0,0,1,1.92,2.85h0v3.29A13.4,13.4,0,0,1,197.19,209ZM224,244.59a13.39,13.39,0,1,1-14.49-13.34v3.31l0,0a3.33,3.33,0,0,1-2.2,3h0a7.81,7.81,0,1,0,6.63,0h0a3.37,3.37,0,0,1-2.19-2.74v-3.53A13.4,13.4,0,0,1,224,244.59Zm-12.26-22.21v-3.31a3.34,3.34,0,0,1,2.2-3h0a7.79,7.79,0,0,0,1.92-1.32l4,4A13.33,13.33,0,0,1,211.71,222.38ZM385.55,392a7.75,7.75,0,0,1,2.14-5.35l2,2a5,5,0,0,0,1.08,7.66h0s1.47,0.78,1.47,1.89v1.52A7.79,7.79,0,0,1,385.55,392Zm7.79,31.17a7.78,7.78,0,0,1-1.11-15.48v1.52c0,1.12-1.47,1.88-1.47,1.89h0a5,5,0,0,0,3.79,9.13h0s1.59-.49,2.38.3h0L398,421.6A7.74,7.74,0,0,1,393.34,423.16Zm7.79-7.79a7.73,7.73,0,0,1-1.55,4.64l-1.14-1.14a2.87,2.87,0,0,1-.23-2.3h0a5,5,0,0,0-2.47-5.59,2.51,2.51,0,0,1-1.27-1.72v-1.57A7.79,7.79,0,0,1,401.12,415.38Zm-6.67-15.68v-1.57c0-1.09,1.46-1.83,1.47-1.84h0a5,5,0,0,0,.8-0.61l2,2A7.78,7.78,0,0,1,394.45,399.69Zm37.76,15.68a7.74,7.74,0,0,1,1.54-4.63l1.19,1.19a3,3,0,0,1,.17,2.23l0,0a5,5,0,0,0,2.27,5.45v0s1.47,0.78,1.47,1.9h0v1.51A7.79,7.79,0,0,1,432.2,415.38Zm6.67,15.68v1.53h0a2.42,2.42,0,0,1-1.24,1.75,5,5,0,0,0-.57.35l-2-2A7.77,7.77,0,0,1,438.88,431.06Zm-22.21-23.47a7.78,7.78,0,0,1,6,12.72l-2-2a5,5,0,0,0-7-7l-2-2A7.75,7.75,0,0,1,416.66,407.59Zm0,15.57A7.78,7.78,0,0,1,411,410l2,2a5,5,0,0,0,7.06,7.06l2,2A7.75,7.75,0,0,1,416.66,423.16Zm15.54,15.6a7.73,7.73,0,0,1,2.2-5.4l2,2a5,5,0,0,0,7.06,7.06l2,2A7.78,7.78,0,0,1,432.2,438.76Zm15.57,0a7.75,7.75,0,0,1-1.75,4.91l-2-2a5,5,0,0,0-1.78-7.38,2.55,2.55,0,0,1-1.16-1.51v-1.73A7.79,7.79,0,0,1,447.78,438.76ZM440,410.37a5,5,0,0,0-1.21.15h0s-1.59.49-2.38-.3h0l-1.06-1.06a7.78,7.78,0,1,1,5.79,13.91v-1.62a2.88,2.88,0,0,1,1.46-1.79h0A5,5,0,0,0,440,410.37Z" transform="translate(0 -1.23)"/></svg>